:SAMPLES-PER-SECOND 30
:FULLY-SPECIFIED
:DEGREES
18
root  -1.77461 40.8927 0.71815 -29.569 -89.599 29.021
RightUpLeg  2.04805 -1.53913 -2.10707
RightLeg  0.0842944 -19.9255 -0.444084
RightFoot  -0.282596 -0.403145 4.19128
RightToes  -3.11842e-008 1.75238e-005 3.56266e-009
Spine  -1.2918 -4.28499 -10.678
Spine1  2.40552 -7.86342 19.6373
HEad  -5.54148 9.34662 -9.00688
LeftShoulder1  -0.876037 6.94772 -18.7772
LeftArm  -48.9723 -0.579724 14.5857
LeftForeArm  56.5104 4.57419 3.58957
LeftHand  -0.0349671 -2.74206 0.712145
RightShoulder  -0.581057 2.53193 -20.7793
RightArm  -48.8973 13.9077 13.0742
RightForeArm  35.643 -4.81336 -5.0771
RightHand  0.137768 3.5378 1.53504
LeftUpLeg  0.332781 0.0133245 0.810446
LeftLeg  1.55479 13.584 0.134783
LeftFoot  -1.45218 0.0963885 -1.08165
LeftToes  4.7713e-008 1.46693e-008 1.32589e-009
19
root  -1.79075 40.8932 0.709271 -25.8622 -89.5349 25.3394
RightUpLeg  2.10066 -1.56833 -2.11698
RightLeg  -0.00328248 -19.9615 -0.37652
RightFoot  -0.287962 -0.397921 4.13958
RightToes  -3.11842e-008 1.75238e-005 3.56266e-009
Spine  -1.56853 -4.43183 -10.9677
Spine1  2.65494 -8.11583 20.0925
HEad  -5.39582 9.86672 -9.27904
LeftShoulder1  -0.838226 6.7713 -19.0113
LeftArm  -48.9863 -0.246246 14.7356
LeftForeArm  56.4112 4.5597 3.68979
LeftHand  -0.0157222 -2.4359 0.432606
RightShoulder  -0.736564 3.98644 -21.0018
RightArm  -49.1804 12.8451 12.6908
RightForeArm  36.1044 -4.7501 -5.3904
RightHand  0.194762 4.02999 2.13189
LeftUpLeg  0.341594 -0.0152703 0.803448
LeftLeg  1.50796 13.5376 0.154183
LeftFoot  -1.40523 0.100271 -1.14248
LeftToes  4.7713e-008 1.46693e-008 1.32589e-009
20
root  -1.80241 40.8935 0.700099 -27.8099 -89.5103 27.2831
RightUpLeg  2.11854 -1.61004 -2.14215
RightLeg  0.013543 -19.9504 -0.358417
RightFoot  -0.326251 -0.394613 4.11528
RightToes  -3.11842e-008 1.75238e-005 3.56266e-009
Spine  -1.80574 -4.56663 -11.1869
Spine1  2.9059 -8.34154 20.4515
HEad  -5.33572 10.225 -9.53924
LeftShoulder1  -0.802332 6.5946 -19.3422
LeftArm  -49.3122 -0.149698 14.9979
LeftForeArm  57.3849 4.45983 4.08465
LeftHand  -0.0403192 -3.07387 0.777452
RightShoulder  -0.830734 4.83872 -21.134
RightArm  -49.4839 12.5745 12.4752
RightForeArm  36.4169 -4.69932 -5.6467
RightHand  0.199594 4.10925 2.16535
LeftUpLeg  0.419107 -0.0245183 0.787958
LeftLeg  1.37952 13.5285 0.120714
LeftFoot  -1.31601 0.0924267 -1.02149
LeftToes  4.7713e-008 1.46693e-008 1.32589e-009
21
root  -1.82154 40.8937 0.688093 -30.7382 -89.4905 30.2351
RightUpLeg  2.11957 -1.63516 -2.16862
RightLeg  0.0232729 -19.9424 -0.347604
RightFoot  -0.368658 -0.394499 4.13592
RightToes  -3.11842e-008 1.75238e-005 3.56266e-009
Spine  -2.02015 -4.71425 -11.4603
Spine1  3.0952 -8.58746 20.8895
HEad  -5.34096 10.4728 -9.72254
LeftShoulder1  -0.747445 6.34016 -19.7708
LeftArm  -48.9805 0.341481 15.5497
LeftForeArm  58.1884 4.46007 3.93619
LeftHand  -0.0754045 -4.02045 1.20648
RightShoulder  -0.907297 5.44643 -21.3295
RightArm  -49.2894 12.4432 12.3393
RightForeArm  36.5375 -4.7243 -5.49385
RightHand  0.204278 4.06464 2.23016
LeftUpLeg  0.44955 -0.00973188 0.791298
LeftLeg  1.33035 13.5262 0.0853627
LeftFoot  -1.32452 0.100587 -1.1496
LeftToes  4.7713e-008 1.46693e-008 1.32589e-009
22
root  -1.83953 40.8938 0.674408 -27.3149 -89.4326 26.8215
RightUpLeg  2.15236 -1.64113 -2.15044
RightLeg  0.00899544 -20.0127 -0.328316
RightFoot  -0.409152 -0.394461 4.15151
RightToes  -3.11842e-008 1.75238e-005 3.56266e-009
Spine  -2.27103 -4.92837 -11.6799
Spine1  3.41387 -8.91455 21.2621
HEad  -5.26614 10.9608 -9.67098
LeftShoulder1  -0.677909 6.04206 -20.1483
LeftArm  -48.7234 0.981027 16.0345
LeftForeArm  58.1172 4.47899 3.84058
LeftHand  -0.0702346 -4.24701 1.14888
RightShoulder  -0.990271 5.938 -21.7291
RightArm  -49.5112 12.6077 12.6028
RightForeArm  36.154 -4.7 -5.66839
RightHand  0.136347 3.44858 1.54723
LeftUpLeg  0.458166 0.011045 0.815572
LeftLeg  1.33051 13.4196 0.0775808
LeftFoot  -1.31879 0.0958441 -1.07741
LeftToes  4.7713e-008 1.46693e-008 1.32589e-009
23
root  -1.86098 40.8937 0.663027 -22.9907 -89.3664 22.4548
RightUpLeg  2.25319 -1.69907 -2.1527
RightLeg  -0.0045383 -20.0198 -0.25941
RightFoot  -0.462578 -0.388708 4.07548
RightToes  -3.11842e-008 1.75238e-005 3.56266e-009
Spine  -2.44813 -5.13892 -11.9824
Spine1  3.61798 -9.24892 21.7671
HEad  -5.10437 11.2528 -9.97966
LeftShoulder1  -0.677641 6.02499 -20.3334
LeftArm  -48.2951 1.46988 16.0856
LeftForeArm  56.9286 4.57089 3.53334
LeftHand  -0.0771265 -2.41584 1.3377
RightShoulder  -1.06696 6.53281 -21.8836
RightArm  -49.7407 12.7428 12.4717
RightForeArm  35.9962 -4.68071 -5.79221
RightHand  0.129381 3.33737 1.475
LeftUpLeg  0.528823 0.0403673 0.850236
LeftLeg  1.33611 13.3181 0.0844281
LeftFoot  -1.34508 0.0981562 -1.11503
LeftToes  4.7713e-008 1.46693e-008 1.32589e-009
